<svg width="10" height="10" viewBox="0 0 10 10" fill="none" xmlns="http://www.w3.org/2000/svg">
<path d="M8.84019 4.04001H5.96019V1.16001C5.96019 0.629852 5.53035 0.200012 5.00019 0.200012C4.47003 0.200012 4.04019 0.629852 4.04019 1.16001V4.04001H1.1602C0.630035 4.04001 0.200195 4.46985 0.200195 5.00001C0.200195 5.53017 0.630035 5.96001 1.1602 5.96001H4.04019V8.84001C4.04019 9.37017 4.47003 9.80001 5.00019 9.80001C5.53035 9.80001 5.96019 9.37017 5.96019 8.84001V5.96001H8.84019C9.37035 5.96001 9.80019 5.53017 9.80019 5.00001C9.80019 4.46985 9.37035 4.04001 8.84019 4.04001Z" fill="#D64A4A"/>
</svg>
